PathFileType	4	(X/Y/Z)	C:\Users\WrightLab\Desktop\Jo\P3_26.trc
DataRate	CameraRate	NumFrames	NumMarkers	Units	OrigDataRate	OrigDataStartFrame	OrigNumFrames
100.00	100.00	       29	19	mm	100.00	559	       638
Frame#	Time	Headset_Front			Headset_Back			Headset_Left			Headset_Right			Left_Shoulder			Right_Shoulder			Sternum			C7			Left Elbow			Right Elbow			Left Wrist			Right Wrist			Left ASIS			Right ASIS			S2			Left Knee			Right Knee			Left Ankle			Right Ankle			
		X1	Y1	Z1	X2	Y2	Z2	X3	Y3	Z3	X4	Y4	Z4	X5	Y5	Z5	X6	Y6	Z6	X7	Y7	Z7	X8	Y8	Z8	X9	Y9	Z9	X10	Y10	Z10	X11	Y11	Z11	X12	Y12	Z12	X13	Y13	Z13	X14	Y14	Z14	X15	Y15	Z15	X16	Y16	Z16	X17	Y17	Z17	X18	Y18	Z18	X19	Y19	Z19	

559	5.580																																														-291.82031	501.44641	2534.00854				-230.60159	173.55057	2538.69604	-9.62261	223.93037	2258.94482	
560	5.590																																														-293.87445	500.82880	2533.63354				-231.15649	173.33484	2538.38672	-6.40795	222.46770	2276.12354	
561	5.600																																														-295.23575	500.73587	2534.22778				-231.46585	172.70348	2537.67944	-3.56906	221.99188	2293.92114	
562	5.610																																														-296.80719	500.76147	2534.78833				-232.54343	173.34500	2538.63379	-1.04664	219.88622	2311.03809	
563	5.620																																														-298.78345	500.54132	2534.27905				-232.91103	173.26387	2538.23193	0.35850	219.91837	2326.92456	
564	5.630																																														-299.83655	499.97632	2533.94336				-233.49503	173.64452	2538.62061	2.54164	217.86426	2348.76831	
565	5.640																																														-301.19400	500.59061	2534.87573				-233.82643	173.75528	2538.61890	5.77337	218.95108	2361.88281	
566	5.650																																														-302.28391	500.84875	2534.74561				-234.16350	173.82240	2538.83301	6.59150	219.83485	2378.05811	
567	5.660																																														-302.79297	500.25717	2533.60767				-234.47530	174.09048	2539.08545	6.60802	219.83205	2394.20801	
568	5.670																																														-303.44214	499.99567	2533.72681				-234.52702	173.99390	2538.96289				
569	5.680																																														-303.52307	499.85651	2533.55518				-234.56042	173.91638	2538.89185				
570	5.690																																														-303.46500	499.94897	2533.68213				-234.58989	173.85201	2538.82715				
571	5.700																																														-303.07806	499.92221	2533.83594				-234.60179	173.83107	2538.79834				
572	5.710																																														-302.74005	500.21555	2534.64429				-234.61356	173.80026	2538.77515				
573	5.720																																														-302.25577	500.56140	2534.95581				-234.80779	173.94876	2539.26782				
574	5.730																																														-301.68106	500.32281	2535.15649				-235.00429	173.98219	2539.73535				
575	5.740																																														-301.11771	499.65646	2535.39331				-235.30246	174.08783	2540.29297				
576	5.750																																														-300.35754	499.00629	2534.74146				-235.36137	173.92612	2540.18140				
577	5.760																																														-300.00836	499.11005	2534.71509				-235.62671	174.11288	2540.17456				
578	5.770																																														-299.90488	499.29578	2534.93140				-235.73123	173.87486	2539.95068				
579	5.780																																														-299.94305	499.21634	2534.85718				-236.08360	173.90323	2540.16333				
580	5.790																																														-300.02240	499.07288	2534.69189				-236.23523	173.51126	2539.86377				
581	5.800																																														-300.21005	498.73773	2534.29858				-236.49004	172.97176	2539.76172				
582	5.810																																														-300.41000	498.45093	2533.84424				-236.73657	172.40210	2539.23804				
583	5.820																																														-301.02045	498.50638	2532.71606				-237.25357	171.92537	2538.98022				
584	5.830																																														-302.89529	498.54733	2531.39600				-237.84149	172.03961	2538.62305				
585	5.840																																														-303.84943	498.48544	2530.38916				-238.32991	171.81972	2538.28369				
586	5.850																																														-305.22226	498.24774	2529.02197				-238.97394	171.89334	2538.54370				
587	5.860																																														-306.26953	497.61429	2526.22949				-239.21378	171.88669	2538.79150				
